<svg fill="currentColor" role="img" viewBox="0 0 24 24" xmlns="http://www.w3.org/2000/svg"><title>AWS</title><path d="M6.763 10.036c0 .296.032.535.088.71.064.176.144.368.256.576.04.063.056.127.056.183 0 .08-.048.16-.152.24l-.503.335a.383.383 0 01-.208.072c-.08 0-.16-.04-.239-.112a2.47 2.47 0 01-.287-.375 6.18 6.18 0 01-.248-.471c-.622.734-1.405 1.101-2.347 1.101-.67 0-1.205-.191-1.596-.574-.391-.384-.59-.894-.59-1.533 0-.678.239-1.23.726-1.644.487-.415 1.133-.623 1.955-.623.272 0 .551.024.846.064.296.04.6.104.918.176v-.583c0-.607-.127-1.03-.375-1.277-.255-.248-.686-.367-1.3-.367-.28 0-.568.031-.863.103a6.4 6.4 0 00-.863.279 2.05 2.05 0 01-.247.096c-.064.016-.112.024-.16.024-.14 0-.207-.1-.207-.304v-.39c0-.16.016-.277.056-.36a.574.574 0 01.2-.184c.28-.144.614-.264 1.005-.36a4.7 4.7 0 011.245-.144c.951 0 1.644.216 2.091.647.44.432.662 1.085.662 1.963v2.586zm-3.24 1.214c.263 0 .534-.048.822-.144a1.77 1.77 0 00.758-.51c.128-.152.224-.32.272-.512.047-.191.08-.423.08-.694v-.335a6.66 6.66 0 00-.735-.136 6.02 6.02 0 00-.75-.048c-.535 0-.926.104-1.19.32-.263.215-.39.518-.39.917 0 .375.095.655.295.846.191.2.47.296.838.296zm6.41.862c-.176 0-.296-.032-.367-.096-.072-.056-.136-.176-.192-.336l-2.139-7.04a1.858 1.858 0 01-.08-.335c0-.136.064-.2.2-.2h.79c.184 0 .312.032.375.096.072.056.128.176.184.336l1.533 6.04 1.421-6.04c.048-.168.104-.28.176-.336.072-.064.2-.096.383-.096h.645c.184 0 .312.032.383.096.072.056.128.176.176.336l1.437 6.116 1.581-6.116c.056-.168.12-.28.184-.336.072-.064.2-.096.375-.096h.75c.136 0 .208.063.208.2 0 .04-.008.08-.016.128a1.014 1.014 0 01-.064.2l-2.195 7.04c-.056.168-.12.28-.192.336-.072.056-.2.096-.367.096h-.694c-.184 0-.312-.032-.383-.096-.072-.064-.128-.176-.176-.344L14.34 5.692l-1.405 5.956c-.048.176-.104.288-.176.344-.072.064-.2.096-.383.096zm10.256.215c-.415 0-.83-.048-1.229-.143-.4-.096-.71-.2-.918-.32-.128-.072-.216-.152-.248-.224a.645.645 0 01-.048-.232v-.407c0-.2.072-.296.216-.296a.53.53 0 01.168.024c.056.016.136.056.232.104.32.16.67.28 1.038.36.375.08.742.12 1.117.12.59 0 1.05-.104 1.37-.32.32-.215.487-.527.487-.927a.916.916 0 00-.247-.655c-.168-.168-.486-.32-.958-.463l-1.374-.43c-.7-.216-1.22-.535-1.548-.959-.328-.424-.487-.91-.487-1.46 0-.383.08-.72.24-1.005.16-.287.375-.535.638-.735a2.8 2.8 0 01.918-.456 3.94 3.94 0 011.126-.152c.2 0 .407.008.607.032.2.024.39.056.575.088.176.04.343.08.503.127.16.048.287.096.383.144a.77.77 0 01.28.2.46.46 0 01.08.264v.367c0 .2-.072.304-.216.304a1.06 1.06 0 01-.343-.176 4.394 4.394 0 00-1.852-.392c-.535 0-.958.088-1.253.272-.296.184-.447.464-.447.856 0 .272.096.503.287.687.192.183.543.343 1.046.487l1.35.43c.694.2 1.198.48 1.494.836.296.36.44.77.44 1.22 0 .39-.08.735-.232 1.029a2.4 2.4 0 01-.654.76 2.94 2.94 0 01-.99.456c-.383.104-.806.168-1.245.168z"/></svg>
